# xmcd
#
# Track frame offsets:
#	150
#	24179
#	47118
#	67663
#	82837
#	96530
#	114784
#	129585
#	157045
#	178672
#	199379
#	213219
#	233124
#	248737
#	271252
#
# Disc length: 4036 seconds
#
# Revision: 2
# Processed by: cddbd v1.5.2PL0 Copyright (c) Steve Scherf et al.
# Submitted via: EZCDAudioConverter 2.1.7.1
#
DISCID=c10fc20f
DTITLE=V/A - Purple Snow 2/2
DYEAR=2013
DGENRE=
TTITLE0=Walter Lewis and The Blue Stars - I Have Love At Home
TTITLE1=Flyte Tyme - I've Got You On My Mind
TTITLE2=Quiet Storm - Can You Deal With It
TTITLE3=Steven - Quick
TTITLE4=The Stylle Band - If You Love Me
TTITLE5=The Girls - I've Got My Eyes On You
TTITLE6=Sue Ann Carwell - Should I Or Should I Not?
TTITLE7=Alexander O'Neal - Do You Dare
TTITLE8=Ronnie Robbins - Contagious
TTITLE9=Alexander O'Neal - Borrowed Time
TTITLE10=Orville Shannon - One Life To Live
TTITLE11=André Cymone - Somebody Said
TTITLE12=Walter Lewis and The Blue Stars - Do It Baby Do It
TTITLE13=Rockie Robbins - Together
TTITLE14=Mind and Matter - No One Else Can Do It To Me Baby
EXTD=
EXTT0=
EXTT1=
EXTT2=
EXTT3=
EXTT4=
EXTT5=
EXTT6=
EXTT7=
EXTT8=
EXTT9=
EXTT10=
EXTT11=
EXTT12=
EXTT13=
EXTT14=
PLAYORDER=
